<svg xmlns="http://www.w3.org/2000/svg" viewBox="0 0 610.43 312.89"><defs><style>.cls-1{isolation:isolate;}.cls-2,.cls-3{fill:#b1def7;}.cls-3{mix-blend-mode:multiply;}</style></defs><g class="cls-1"><g id="Layer_1" data-name="Layer 1"><path class="cls-2" d="M40,118.08h.38a39.76,39.76,0,0,1,31,15l51.85,65.29a39.75,39.75,0,0,0,64.2-2.68L272,68.87a39.75,39.75,0,0,1,66.15,0l84.67,127a39.75,39.75,0,0,0,64.11,2.78l52.71-65.88a39.74,39.74,0,0,1,31-14.92h0c32.75,0,51.45,37.39,31.79,63.59L514.17,299.16a39.78,39.78,0,0,1-31.8,15.9H424.92a39.79,39.79,0,0,1-33.08-17.7l-53.72-80.59a39.75,39.75,0,0,0-66.15,0l-53.72,80.59a39.77,39.77,0,0,1-33.07,17.7H127.75a39.73,39.73,0,0,1-31.82-15.94L8,181.64C-11.62,155.37,7.21,118,40,118.08Z"/><path class="cls-3" d="M570.46,197h-.38a39.75,39.75,0,0,1-31-15l-51.86-65.28a39.74,39.74,0,0,0-64.19,2.67L338.49,246.19a39.74,39.74,0,0,1-66.14,0l-84.68-127a39.74,39.74,0,0,0-64.11-2.78l-52.7,65.88a39.77,39.77,0,0,1-31,14.92h0c-32.75,0-51.45-37.4-31.8-63.6L96.3,15.9A39.74,39.74,0,0,1,128.1,0h57.45a39.74,39.74,0,0,1,33.07,17.7l53.73,80.59a39.74,39.74,0,0,0,66.14,0L392.22,17.7A39.74,39.74,0,0,1,425.29,0h57.42a39.75,39.75,0,0,1,31.83,15.94l87.9,117.48C622.09,159.68,603.26,197.1,570.46,197Z"/></g></g></svg>