<svg width="189" height="67" viewBox="0 0 189 67" fill="none" xmlns="http://www.w3.org/2000/svg">
<path d="M82.5263 56.0549V54.402L86.139 53.8779V31.1814L82.5263 30.738V29.0851H89.9523L98.9439 51.2576L107.454 29.0851H115.361V30.738L111.669 31.1814C111.642 32.8746 111.615 34.5946 111.588 36.3415C111.588 38.0885 111.588 39.8354 111.588 41.5823V43.5577C111.588 45.2777 111.588 47.0112 111.588 48.7581C111.615 50.4782 111.642 52.2116 111.669 53.9586L115.361 54.402V56.0549H104.443V54.402L107.815 53.9586C107.869 52.2654 107.895 50.5454 107.895 48.7984C107.895 47.0515 107.895 45.318 107.895 43.598V33.5599L99.1847 56.0549H97.1777L87.9855 33.5599L88.2263 41.1792V53.8779L91.5178 54.402V56.0549H82.5263ZM118.587 56.0549V54.6036L121.597 54.0392C121.624 53.0179 121.637 51.916 121.637 50.7335C121.664 49.5241 121.677 48.4759 121.677 47.589V45.6943C121.677 44.5924 121.664 43.6786 121.637 42.953C121.637 42.2004 121.611 41.4211 121.557 40.6148L118.346 40.252V38.841L124.527 36.3819L125.13 36.785L125.009 42.2676V47.589C125.009 48.4759 125.009 49.5241 125.009 50.7335C125.036 51.916 125.063 53.0179 125.089 54.0392L127.899 54.6036V56.0549H118.587ZM137.166 56.5789C136.042 56.5789 135.012 56.4446 134.075 56.1758C133.138 55.9339 132.175 55.5577 131.185 55.047L131.024 50.6125H133.232L133.995 54.1198C134.931 54.5498 136.015 54.7648 137.246 54.7648C138.771 54.7648 139.895 54.4826 140.618 53.9183C141.367 53.3539 141.742 52.6148 141.742 51.701C141.742 50.841 141.434 50.1557 140.819 49.645C140.203 49.1075 139.266 48.6237 138.009 48.1937L136.162 47.5084C134.69 46.9709 133.513 46.2721 132.63 45.4121C131.747 44.5521 131.305 43.4367 131.305 42.0661C131.305 41.0717 131.573 40.1445 132.108 39.2844C132.643 38.4244 133.433 37.7256 134.476 37.1881C135.52 36.6506 136.791 36.3819 138.29 36.3819C139.387 36.3819 140.377 36.5297 141.26 36.8253C142.17 37.0941 143.053 37.4972 143.909 38.0347L143.749 42.1467H141.662L141.019 38.9216C140.109 38.4647 139.186 38.2363 138.25 38.2363C137.019 38.2363 136.082 38.4916 135.44 39.0022C134.824 39.486 134.516 40.1445 134.516 40.9776C134.516 41.8645 134.784 42.5364 135.319 42.9933C135.881 43.4502 136.845 43.9339 138.209 44.4446L139.454 44.888C141.461 45.6405 142.879 46.5006 143.709 47.4681C144.565 48.4356 144.993 49.551 144.993 50.8141C144.993 51.8354 144.699 52.7895 144.11 53.6764C143.521 54.5364 142.652 55.2352 141.501 55.7727C140.35 56.3102 138.905 56.5789 137.166 56.5789ZM157.26 56.5789C154.504 56.5789 152.309 55.6786 150.677 53.8779C149.044 52.0773 148.228 49.6316 148.228 46.5409C148.228 44.4177 148.656 42.6036 149.513 41.0985C150.396 39.5666 151.547 38.3975 152.965 37.5913C154.383 36.785 155.895 36.3819 157.501 36.3819C158.705 36.3819 159.816 36.6103 160.832 37.0672C161.849 37.5241 162.692 38.1557 163.361 38.9619C164.03 39.7413 164.445 40.6282 164.606 41.6226C164.418 42.6439 163.803 43.1545 162.759 43.1545C162.09 43.1545 161.582 42.9798 161.234 42.6305C160.913 42.2542 160.685 41.7839 160.551 41.2195L159.829 38.5588C159.454 38.4244 159.08 38.3438 158.705 38.3169C158.357 38.2632 158.009 38.2363 157.661 38.2363C155.949 38.2363 154.53 38.9082 153.406 40.252C152.309 41.5957 151.761 43.5577 151.761 46.1377C151.761 48.6641 152.363 50.5991 153.567 51.9429C154.771 53.2867 156.31 53.9586 158.183 53.9586C159.334 53.9586 160.391 53.7032 161.354 53.1926C162.318 52.6551 163.107 51.8891 163.723 50.8947L164.726 51.4188C164.164 53.0851 163.254 54.3617 161.997 55.2486C160.739 56.1355 159.16 56.5789 157.26 56.5789ZM166.915 56.0549V54.6036L169.926 54.0392C169.953 53.0179 169.966 51.916 169.966 50.7335C169.993 49.5241 170.006 48.4759 170.006 47.589V29.8914L166.715 29.4882V28.0773L172.856 26.2632L173.418 26.5857L173.258 32.3102V40.0907C174.248 38.9888 175.398 38.1019 176.71 37.43C178.021 36.7312 179.319 36.3819 180.603 36.3819C182.343 36.3819 183.627 36.9731 184.457 38.1557C185.313 39.3113 185.741 41.206 185.741 43.8399V47.589C185.741 48.5028 185.741 49.551 185.741 50.7335C185.768 51.916 185.795 53.0179 185.822 54.0392L188.632 54.6036V56.0549H179.319V54.6036L182.249 54.0795C182.276 53.0582 182.289 51.9563 182.289 50.7738C182.316 49.5644 182.329 48.5028 182.329 47.589V44.1624C182.329 42.3079 182.075 41.0314 181.567 40.3326C181.058 39.6338 180.215 39.2844 179.038 39.2844C178.048 39.2844 177.111 39.486 176.228 39.8891C175.345 40.2923 174.395 40.9642 173.378 41.9048V47.589C173.378 48.4759 173.378 49.5241 173.378 50.7335C173.405 51.916 173.432 53.0179 173.458 54.0392L176.228 54.6036V56.0549H166.915Z" fill="#222222"/>
<path d="M123.323 31.9474C122.574 31.9474 121.932 31.7055 121.397 31.2217C120.888 30.738 120.634 30.1198 120.634 29.3673C120.634 28.5879 120.888 27.9698 121.397 27.5129C121.932 27.0291 122.574 26.7872 123.323 26.7872C124.073 26.7872 124.701 27.0291 125.21 27.5129C125.745 27.9698 126.013 28.5879 126.013 29.3673C126.013 30.1198 125.745 30.738 125.21 31.2217C124.701 31.7055 124.073 31.9474 123.323 31.9474Z" fill="#FF5C00"/>
<path d="M67.8326 18.2485C67.5854 17.9453 67.3568 17.6297 67.1476 17.3031C64.8618 13.5847 59.5294 1.3361 59.477 1.21867C59.4549 1.16185 59.4204 1.10979 59.3758 1.06567C59.3312 1.02155 59.2772 0.986311 59.2173 0.962094C59.1611 0.939748 59.1006 0.928223 59.0394 0.928223C58.9782 0.928223 58.9177 0.939748 58.8615 0.962094C58.7546 1.00255 58.6371 1.04795 59.3958 3.78839C59.7591 5.10187 60.2817 6.82784 60.629 7.72093C60.8139 8.19757 61.066 8.82717 61.3588 9.55742C62.1379 11.5035 63.4159 14.6949 63.4865 15.2712C62.4179 14.9751 53.0289 11.0051 49.8744 9.66894C48.9906 9.29493 48.6305 9.14197 48.5995 9.13111C48.4792 9.08706 48.3454 9.08669 48.2248 9.13008C48.1043 9.17347 48.006 9.2574 47.9498 9.36499C47.9246 9.41652 47.9112 9.47227 47.9102 9.52879C47.9093 9.58531 47.921 9.6414 47.9444 9.69361C47.9691 9.74883 48.0057 9.79884 48.052 9.84057C48.0983 9.88231 48.1534 9.9149 48.2137 9.93637C48.3206 9.98571 61.3247 16.334 64.4087 18.4074C65.4538 19.11 65.9657 19.6527 65.9721 20.0652C65.9774 20.4274 65.6013 20.6958 65.1653 21.0057L65.0584 21.0787C63.8829 21.9244 58.1765 24.9481 57.374 25.1662C57.3868 24.9895 57.4808 24.5405 57.5642 24.1369C57.7031 23.4678 57.8751 22.6359 57.9168 22.0646C57.9499 21.6017 57.8474 19.4001 57.1175 19.2718C57.0802 19.2651 57.0418 19.2659 57.0049 19.2743C56.968 19.2826 56.9335 19.2983 56.9038 19.3202C56.6804 19.481 56.6323 19.9843 56.5832 20.6771C56.5693 20.8883 56.5575 21.0876 56.5351 21.2287C56.2882 22.8155 55.2901 24.431 54.914 25.0389C54.4737 25.7514 53.3869 27.0905 52.5737 27.6501C49.3198 29.8862 46.2849 31.7119 45.9483 31.6398C45.7399 31.5638 44.8935 30.0925 44.465 28.9685C44.3934 28.78 44.3069 28.4701 44.2064 28.1109C43.8997 27.0135 43.64 26.158 43.3216 25.9399C43.2798 25.9081 43.2286 25.8887 43.1746 25.8841C43.1207 25.8795 43.0666 25.89 43.0192 25.9142C42.6462 26.1057 42.5319 27.2218 42.565 27.655C42.565 27.7004 42.5725 27.7596 42.5768 27.8287C42.6248 28.5303 42.736 30.1744 43.1613 31.1198C43.4691 31.8027 43.9371 32.8684 44.1476 33.348C43.1079 34.5865 41.3981 36.9806 41.303 39.4151C41.2955 39.6125 41.2859 39.8098 41.2773 40.0141V40.0348C41.1704 42.3855 41.0476 45.0509 42.6067 46.096C42.9981 46.3582 43.4707 46.4966 43.9542 46.4907C44.38 46.4835 44.8003 46.4 45.1917 46.245C45.5176 45.4042 45.5411 45.1299 45.5422 45.0874C45.5563 44.5592 45.5206 44.0309 45.4353 43.5085C45.094 43.7564 44.7216 43.9655 44.3261 44.1312C44.2864 44.1486 44.2427 44.1566 44.1989 44.1545C44.1551 44.1524 44.1125 44.1404 44.075 44.1193C43.951 44.0503 43.733 43.8164 43.655 43.018C43.5716 42.1516 43.6208 41.0799 43.6635 40.1345C43.6732 39.9164 43.6828 39.7042 43.6913 39.5009C43.7704 37.4641 45.8499 34.7908 47.1419 33.5799C47.8397 32.9286 52.0821 30.5277 54.027 29.4668C56.0018 28.3902 58.1156 27.2958 59.9803 26.3267L60.9923 25.8017L61.5918 25.4909C64.9473 23.754 68.7516 21.7843 68.7847 20.1975C68.8093 19.4929 68.3348 18.8879 67.8326 18.2485Z" fill="#222222"/>
<path d="M61.1997 31.4602C60.0392 30.7211 58.2279 31.3477 55.0786 32.8487L55.0572 32.8586C54.851 32.9573 54.6747 33.0411 54.5368 33.1033C52.6528 33.9569 52.2072 35 51.6366 36.6312C51.4154 37.2638 50.1565 38.9464 48.6562 40.5717C49.0856 41.3546 49.3695 42.1986 49.4961 43.0684C51.6537 40.921 53.5494 38.3661 53.9053 37.3447C54.3808 35.9859 54.5464 35.6109 55.567 35.149C55.7198 35.0799 55.9196 34.9852 56.1515 34.8747C56.2797 34.8135 56.4721 34.7099 56.7222 34.5786C57.4189 34.2076 59.2676 33.2237 59.5423 33.4526C60.0766 33.8987 59.6384 35.1885 59.2217 36.4349C59.1031 36.7872 58.9802 37.1513 58.8808 37.4918C58.2791 39.5641 57.3537 41.6444 54.6811 42.869L54.1542 43.1108C52.4209 43.9003 51.0798 44.5299 50.8821 44.9069C50.8548 44.9471 50.8418 44.9943 50.8451 45.0418C50.8483 45.0893 50.8676 45.1346 50.9003 45.1713C51.2273 45.5187 53.2374 44.9345 53.2577 44.9286L53.4286 44.8792C55.9004 44.1776 57.5568 43.399 58.3508 42.5641L58.5228 42.3845C59.2708 41.6069 59.9793 40.8727 61.0084 38.0256C61.6646 36.2109 62.1059 34.0941 62.1839 33.0244C62.247 32.1954 61.4466 31.6132 61.1997 31.4602Z" fill="#222222"/>
<path d="M16.8593 43.1108L16.3335 42.871C13.6619 41.6463 12.7355 39.5631 12.1338 37.4937C12.0344 37.1533 11.9115 36.7891 11.7929 36.4368C11.3719 35.1895 10.938 33.8997 11.4723 33.4546C11.7459 33.2247 13.5957 34.2095 14.2924 34.5806C14.5393 34.7118 14.7348 34.8164 14.8631 34.8766C15.095 34.9872 15.2905 35.0819 15.4476 35.151C16.4671 35.6128 16.6338 35.9878 17.1093 37.3467C17.4662 38.3651 19.362 40.92 21.5185 43.0703C21.6453 42.2008 21.9296 41.3571 22.3595 40.5746C20.8634 38.9493 19.6003 37.2658 19.378 36.6332C18.8063 35.002 18.3607 33.9589 16.4778 33.1052C16.341 33.0431 16.1636 32.9592 15.9574 32.8605L15.936 32.8506C12.7857 31.3477 10.9744 30.725 9.81384 31.4602C9.56699 31.6171 8.76659 32.1944 8.82964 33.0243C8.91192 34.0941 9.35219 36.2108 10.0051 38.0256C11.0342 40.8727 11.7416 41.6069 12.4907 42.3845L12.6671 42.5671C13.461 43.4019 15.1174 44.1805 17.5891 44.8822L17.7612 44.9315C17.7815 44.9374 19.7916 45.5236 20.1186 45.1743C20.1512 45.1375 20.1705 45.0922 20.1738 45.0447C20.177 44.9973 20.1641 44.9501 20.1367 44.9098C19.938 44.5299 18.5969 43.8983 16.8593 43.1108Z" fill="#222222"/>
<path d="M29.7297 40.0339V40.0132C29.7201 39.8069 29.7116 39.6066 29.7041 39.4142C29.609 36.9796 27.8992 34.5856 26.8594 33.3471C27.0731 32.8705 27.5348 31.8106 27.8458 31.1188C28.2732 30.1734 28.3801 28.5294 28.4303 27.8277C28.4303 27.7577 28.4389 27.6995 28.4421 27.6541C28.4752 27.2199 28.3608 26.1047 27.9879 25.9133C27.9405 25.8891 27.8863 25.8786 27.8324 25.8832C27.7785 25.8878 27.7273 25.9072 27.6855 25.9389C27.3649 26.1521 27.1073 27.0087 26.8006 28.11C26.7002 28.4692 26.6136 28.7791 26.542 28.9675C26.1146 30.0915 25.2661 31.5629 25.0609 31.6379C24.719 31.7119 21.6894 29.8843 18.4355 27.6481C17.6222 27.0896 16.5354 25.7495 16.0952 25.038C15.719 24.4301 14.7199 22.8146 14.4741 21.2278C14.4516 21.0867 14.4399 20.8863 14.426 20.6762C14.3822 19.9854 14.333 19.4801 14.1054 19.3193C14.0757 19.2974 14.0412 19.2817 14.0043 19.2733C13.9674 19.265 13.929 19.2642 13.8917 19.2709C13.1618 19.3972 13.0592 21.6008 13.0923 22.0636C13.133 22.636 13.3061 23.4679 13.4439 24.136C13.5273 24.5396 13.6213 24.9896 13.6341 25.1653C12.8316 24.9472 7.12835 21.9225 5.94966 21.0778L5.8428 21.0048C5.4068 20.6939 5.03064 20.4265 5.03599 20.0643C5.0424 19.6518 5.5532 19.1091 6.59938 18.4064C9.6845 16.3341 22.6864 9.9838 22.788 9.93841C22.8497 9.91704 22.906 9.8842 22.9534 9.84194C23.0008 9.79967 23.0384 9.74888 23.0637 9.69269C23.0881 9.64067 23.1007 9.58458 23.1007 9.52789C23.1007 9.47119 23.0881 9.4151 23.0637 9.36309C23.0084 9.25508 22.9109 9.1704 22.7907 9.1261C22.6706 9.08179 22.5367 9.08114 22.4161 9.12427C22.3851 9.13513 22.025 9.28809 21.1412 9.6621C17.9856 10.9983 8.59985 14.9723 7.52802 15.2644C7.59962 14.688 8.87662 11.4966 9.65565 9.55058C9.94738 8.82033 10.2006 8.19073 10.3855 7.71409C10.7328 6.821 11.2543 5.09503 11.623 3.78451C12.3817 1.04506 12.2642 0.998679 12.1573 0.958218C12.1011 0.935872 12.0406 0.924347 11.9794 0.924347C11.9182 0.924347 11.8576 0.935872 11.8014 0.958218C11.7409 0.981672 11.6862 1.01638 11.6408 1.06018C11.5954 1.10398 11.5602 1.15594 11.5375 1.21282C11.4841 1.33618 6.1527 13.5848 3.86691 17.3041C3.65738 17.6304 3.42834 17.9457 3.18086 18.2485C2.6786 18.888 2.20413 19.4929 2.21909 20.1995C2.25329 21.7873 6.05652 23.7521 9.412 25.4929L10.0115 25.8037L11.0235 26.3287C12.8882 27.2958 15.003 28.3922 16.9768 29.4688C18.9238 30.5277 23.1641 32.9307 23.863 33.5869C25.155 34.7938 27.2334 37.4662 27.3136 39.5079C27.3211 39.7112 27.3318 39.9244 27.3414 40.1415C27.3852 41.0868 27.4343 42.1586 27.3499 43.025C27.273 43.8233 27.0539 44.0582 26.93 44.1263C26.8924 44.1473 26.8498 44.1594 26.806 44.1615C26.7622 44.1635 26.7185 44.1555 26.6788 44.1381C26.2834 43.9724 25.9109 43.7634 25.5696 43.5154C25.4843 44.0379 25.4485 44.5662 25.4627 45.0944C25.4627 45.1378 25.4873 45.4112 25.8132 46.2519C26.2046 46.407 26.6249 46.4905 27.0507 46.4977C27.5342 46.5036 28.0068 46.3651 28.3982 46.1029C29.9606 45.05 29.8377 42.3855 29.7297 40.0339Z" fill="#222222"/>
<path d="M30.2096 43.8816C31.2782 44.8072 32.3864 45.7654 33.5597 46.32C34.904 46.9556 36.5999 46.6358 37.2999 46.3802C37.3514 46.363 37.4017 46.3429 37.4506 46.32C38.6261 45.7654 39.731 44.8072 40.805 43.8776L41.0647 43.6526C40.899 42.5247 40.9578 41.2339 41.0123 40.024V39.9895C41.0219 39.7921 41.0305 39.5947 41.0379 39.4062C41.0379 39.3826 41.0379 39.3599 41.0379 39.3362C40.1243 39.9174 39.2587 40.6655 38.4059 41.4085L38.1484 41.6326C37.3779 42.3056 36.087 43.4325 35.4522 43.4325C34.8453 43.4325 33.8151 42.5069 33.0639 41.8309C32.8972 41.6809 32.7369 41.5349 32.5851 41.4056C31.7302 40.6684 30.8689 39.9253 29.9563 39.3401C29.9563 39.3638 29.9563 39.3865 29.9563 39.4102C29.9638 39.5977 29.9723 39.7931 29.982 39.9934V40.028C30.0375 41.2378 30.0952 42.5286 29.9285 43.6566L30.2096 43.8816Z" fill="#222222"/>
<path d="M32.3372 65.9767C32.8779 66.2155 33.5843 65.8948 33.9134 65.2603C34.1475 64.8093 34.1272 64.3218 33.9017 63.9912C33.222 63.5343 32.568 62.7369 32.1171 61.4254C32.0412 61.2054 31.9856 61.0119 31.9472 60.8669C31.462 59.0353 30.4789 56.1755 29.5406 54.2551C29.1816 53.5209 28.7253 52.6831 28.2422 51.7949C27.7154 50.8288 27.1736 49.8291 26.7013 48.868C25.2928 45.9923 25.2052 45.2255 25.1977 45.1012C25.1796 44.5417 25.1646 41.746 26.6789 41.6285C26.8315 41.6223 26.9839 41.6452 27.1266 41.6956C27.1266 41.1785 27.0978 40.6466 27.0753 40.1493V40.1305C27.0657 39.9183 27.0561 39.7121 27.0486 39.5137C27.0238 39.0908 26.936 38.6731 26.7879 38.2723C26.6596 38.2723 26.5303 38.2723 26.3999 38.2841C23.3437 38.5141 21.527 41.1657 21.6595 45.2058C21.7162 46.915 24.3364 52.1038 26.4683 55.2597C27.4739 56.7478 28.3267 59.2623 29.0149 61.0652C30.0322 63.7297 31.1457 65.1566 32.2207 65.9214C32.258 65.9426 32.2969 65.9611 32.3372 65.9767Z" fill="#222222"/>
<path d="M44.6157 38.2782C44.4853 38.2684 44.356 38.2654 44.2278 38.2664C44.0796 38.6672 43.9918 39.0849 43.967 39.5078C43.9595 39.7052 43.9499 39.9124 43.9403 40.1246V40.1433C43.9179 40.6368 43.8933 41.1726 43.8879 41.6897C44.031 41.6392 44.1838 41.6167 44.3368 41.6236C45.851 41.7371 45.8328 44.5367 45.8179 45.0963C45.8179 45.2206 45.7228 45.9844 44.3143 48.863C43.8441 49.8242 43.2991 50.8238 42.7734 51.7899C42.2904 52.6781 41.8341 53.5159 41.475 54.2501C40.5357 56.1715 39.5515 59.0313 39.0685 60.8619C39.03 61.007 38.9787 61.2014 38.8985 61.4204C38.4839 62.5583 37.7637 63.4622 37.0146 63.9951C36.9085 64.1716 36.8456 64.3674 36.8302 64.5687C36.8149 64.7701 36.8476 64.9721 36.9259 65.1605C37.1791 65.8247 37.8438 66.2135 38.4091 66.029C38.473 66.0077 38.534 65.9795 38.5908 65.9451V65.9549C39.8731 65.1448 41.0155 63.6744 41.9334 61.2448C41.958 61.1797 41.9826 61.1165 42.0029 61.0553C42.6099 59.2287 43.5438 56.7379 44.5494 55.2498C46.6867 52.0919 49.3026 46.9051 49.3582 45.1959C49.4886 41.1598 47.6719 38.5072 44.6157 38.2782Z" fill="#222222"/>
</svg>
